
<svg version="1.0" xmlns="http://www.w3.org/2000/svg"
 width="2979.000000pt" height="1564.000000pt" viewBox="0 0 2979.000000 1564.000000"
 preserveAspectRatio="xMidYMid meet">

<g transform="translate(0.000000,1564.000000) scale(0.100000,-0.100000)"
fill="#000000" stroke="none">
<path d="M15600 15623 c-197 -17 -638 -105 -898 -179 -186 -53 -788 -253 -952
-317 -216 -84 -905 -364 -1056 -430 -410 -179 -952 -445 -1774 -872 -261 -135
-648 -333 -860 -439 -212 -105 -416 -210 -455 -233 -38 -22 -187 -101 -330
-175 -714 -369 -1273 -746 -1770 -1191 -244 -218 -424 -410 -607 -648 l-97
-126 -7 -604 c-7 -684 -7 -691 66 -904 133 -387 291 -582 950 -1176 505 -454
712 -626 959 -796 412 -283 636 -454 924 -705 251 -219 366 -330 453 -438 153
-190 315 -420 343 -488 12 -29 11 -37 -11 -80 -36 -70 -133 -138 -358 -250
-305 -153 -411 -182 -660 -182 -251 0 -447 36 -597 110 -138 68 -165 111 -377
609 -135 316 -199 453 -219 469 -12 10 -18 4 -35 -36 -34 -79 -99 -312 -133
-475 -54 -261 -49 -284 171 -841 150 -382 237 -639 246 -727 9 -90 -9 -120
-153 -260 -249 -239 -1250 -1053 -1585 -1288 -268 -187 -532 -330 -743 -400
-163 -54 -267 -71 -444 -71 -288 1 -407 45 -577 214 -192 190 -305 414 -378
746 -62 282 -61 405 5 1328 22 303 21 322 -18 322 -73 0 -183 -673 -208 -1280
-22 -535 96 -1292 257 -1639 90 -197 318 -471 448 -540 124 -66 387 -117 564
-108 146 6 249 33 429 111 197 86 657 399 912 621 55 48 177 148 270 223 292
233 318 254 385 317 36 33 146 130 245 216 375 326 613 606 708 834 38 94 53
145 103 370 52 237 76 310 106 326 29 16 106 6 278 -36 195 -47 307 -59 422
-45 263 32 754 265 923 437 98 101 131 189 225 603 61 266 71 371 59 605 -18
337 -55 507 -160 738 -108 236 -119 263 -119 285 0 20 4 22 23 17 69 -21 1055
-533 1150 -598 113 -77 575 -278 760 -331 265 -77 419 -55 714 99 69 36 126
65 127 65 1 0 -4 -51 -11 -112 -42 -369 -47 -464 -48 -873 0 -421 5 -517 46
-805 64 -450 190 -836 360 -1095 67 -103 274 -309 399 -397 119 -85 341 -196
483 -242 241 -79 454 -109 762 -110 201 0 231 2 346 27 281 59 627 211 1020
447 138 83 765 502 959 641 42 30 105 71 142 93 36 21 135 90 220 153 212 157
278 200 288 184 11 -19 19 -107 30 -361 55 -1190 241 -1716 740 -2090 52 -39
118 -82 147 -95 208 -100 708 -111 1072 -25 192 46 578 221 786 358 221 144
359 265 652 571 263 274 320 341 523 601 334 429 381 516 445 822 30 147 53
228 68 246 14 18 64 9 206 -34 353 -109 608 -110 978 -3 237 68 784 316 868
393 21 20 49 36 61 36 39 0 121 -20 314 -75 280 -80 280 -80 515 -79 297 0
692 53 908 120 247 77 512 295 651 533 148 254 325 825 382 1226 22 158 30
611 15 817 -21 274 -127 1119 -186 1473 -19 116 -53 341 -75 500 -74 529 -120
843 -126 859 -3 9 -4 16 -1 16 10 0 236 -288 389 -495 312 -423 675 -958 856
-1260 340 -570 682 -1395 841 -2030 56 -225 123 -550 136 -665 39 -337 51
-846 26 -1085 -25 -236 -81 -495 -157 -721 -141 -424 -643 -1370 -1092 -2059
-118 -181 -220 -362 -228 -402 -8 -40 9 -83 31 -83 9 0 24 14 33 31 9 18 46
68 82 113 79 97 156 204 277 386 50 74 139 203 198 285 59 83 125 188 146 233
22 46 63 118 93 160 70 101 151 250 302 555 382 773 567 1387 651 2157 25 236
25 918 0 1170 -57 554 -182 1015 -473 1746 -215 541 -310 719 -717 1344 -330
507 -436 657 -1073 1525 -198 270 -424 580 -503 690 -218 306 -244 331 -285
286 -22 -24 -140 -313 -171 -418 -61 -210 -69 -400 -21 -503 33 -73 60 -213
86 -445 26 -242 46 -360 76 -454 91 -286 239 -1172 433 -2596 111 -811 123
-917 145 -1255 9 -129 18 -259 20 -289 l5 -54 -96 -91 c-131 -125 -181 -161
-300 -218 -164 -79 -406 -130 -740 -158 -140 -11 -460 -16 -470 -7 -6 7 9 51
120 352 304 821 319 1105 81 1585 -158 319 -341 502 -540 540 -109 21 -235
-22 -343 -117 -295 -259 -676 -990 -796 -1528 -35 -159 -62 -347 -75 -522 -11
-161 -8 -211 22 -364 24 -125 18 -150 -47 -185 -42 -23 -214 -68 -405 -105
-151 -30 -349 -32 -465 -5 -202 47 -418 139 -538 230 -111 83 -151 137 -341
467 -145 252 -400 659 -407 651 -3 -4 -29 -61 -57 -127 -89 -211 -147 -433
-159 -610 -8 -129 17 -195 180 -480 232 -406 425 -804 443 -911 14 -90 -42
-166 -431 -584 -671 -721 -1241 -1060 -1958 -1165 -580 -84 -954 62 -1239 486
-186 277 -273 607 -297 1121 -13 284 -8 317 79 491 60 122 73 158 91 252 11
61 47 225 79 365 132 579 152 759 115 1042 -42 318 -177 847 -306 1196 -66
180 -71 226 -31 318 45 104 70 189 87 294 8 52 17 107 20 121 4 24 -18 48
-173 200 -274 268 -393 369 -438 369 -13 0 -33 -13 -49 -32 -36 -42 -142 -256
-198 -398 -47 -120 -117 -337 -117 -363 0 -8 41 -52 90 -97 100 -92 191 -199
239 -284 48 -83 370 -966 474 -1301 109 -348 147 -506 162 -675 l7 -75 -144
-142 c-186 -184 -288 -271 -543 -462 -603 -453 -1323 -915 -1739 -1116 -382
-186 -562 -225 -1026 -225 -406 0 -660 37 -776 114 -22 14 -61 30 -88 36 -59
13 -166 75 -291 168 -321 238 -489 511 -555 897 -72 424 -35 1205 76 1593 9
31 40 109 69 172 57 124 86 205 134 372 17 59 47 144 66 189 37 86 112 318
170 524 132 472 155 874 79 1403 -41 290 -117 629 -263 1178 -73 272 -211 961
-211 1049 0 58 13 58 87 -3 32 -27 93 -72 136 -101 94 -65 178 -154 234 -246
40 -69 103 -140 103 -117 0 48 -34 397 -46 477 -53 344 -180 594 -512 1008
-81 102 -205 265 -277 363 -71 98 -155 210 -186 249 -81 100 -177 191 -188
180 -12 -14 -117 -334 -136 -418 -21 -93 -37 -364 -25 -428 7 -37 21 -63 51
-97 53 -60 66 -90 78 -188 26 -207 262 -1326 325 -1544 14 -47 39 -148 56
-225 17 -77 60 -250 95 -385 165 -628 338 -1400 390 -1740 9 -58 18 -162 22
-232 l6 -126 -35 -74 c-68 -141 -195 -279 -366 -396 -375 -257 -678 -286
-1132 -110 -228 89 -467 201 -632 296 -117 68 -1266 634 -1553 765 -126 58
-482 219 -790 357 -753 339 -1142 520 -1210 561 -241 145 -589 481 -773 747
-64 93 -128 222 -136 277 -8 48 25 123 102 237 160 236 375 421 932 803 135
93 286 199 336 236 158 116 625 401 1019 621 1145 639 2854 1516 3425 1757
107 46 271 117 364 158 357 159 758 303 1304 468 390 119 590 164 822 185 178
16 626 13 745 -5 276 -42 373 -175 406 -554 17 -202 7 -391 -26 -511 -72 -263
-347 -827 -687 -1410 -108 -186 -219 -355 -233 -355 -15 0 -119 162 -234 366
-146 257 -257 439 -374 612 -107 158 -218 287 -247 287 -21 0 -47 -51 -85
-170 -57 -181 -125 -502 -125 -591 0 -20 13 -70 29 -111 35 -86 67 -209 115
-443 20 -93 47 -210 61 -260 26 -95 118 -508 190 -860 24 -116 91 -497 150
-847 58 -350 123 -730 145 -844 93 -487 162 -907 181 -1101 16 -159 11 -170
-99 -226 -48 -25 -122 -59 -165 -76 -109 -44 -209 -95 -231 -120 -55 -61 63
-50 309 29 88 28 176 53 196 56 l37 6 11 -63 c32 -186 125 -1041 152 -1401 14
-191 7 -497 -15 -628 -29 -166 -83 -396 -171 -720 -95 -352 -134 -535 -117
-552 22 -22 83 104 207 432 101 268 245 700 289 870 83 314 166 820 191 1150
8 106 -14 360 -69 816 l-42 346 136 111 c254 210 626 593 701 724 44 76 64 87
136 75 94 -16 104 -8 178 156 l44 97 -63 65 c-97 101 -102 113 -96 255 2 66 5
172 5 235 0 107 -2 119 -29 175 -38 76 -148 188 -219 220 -136 64 -363 8 -492
-121 -131 -131 -222 -462 -173 -627 19 -64 33 -72 447 -268 140 -67 161 -83
161 -122 0 -52 -59 -127 -259 -330 -247 -251 -409 -387 -462 -387 -25 0 -38
71 -149 790 -65 424 -123 768 -171 1018 -102 535 -199 1137 -199 1240 0 86 17
74 186 -131 145 -177 161 -197 238 -312 170 -251 193 -216 101 155 -63 254
-133 496 -198 681 l-55 157 105 153 c139 205 374 574 462 729 99 173 343 664
420 845 83 195 122 311 175 525 77 308 102 513 93 785 -5 198 -24 272 -104
410 -151 262 -316 395 -581 467 -68 19 -108 21 -337 23 -143 1 -280 1 -305 -2z
m1020 -5958 c83 -42 132 -128 152 -264 8 -62 8 -87 -1 -107 -11 -25 -15 -26
-64 -22 -56 5 -179 51 -346 129 -173 81 -202 116 -143 171 115 108 292 149
402 93z m8479 -2625 c35 -6 82 -20 105 -32 108 -55 254 -243 366 -473 99 -203
124 -311 88 -380 -19 -36 -112 -128 -193 -191 -119 -92 -353 -242 -404 -259
-96 -32 -181 -4 -333 110 -203 152 -318 301 -318 410 0 137 200 490 388 687
134 140 160 150 301 128z"/>
<path d="M9025 13936 c-99 -50 -322 -156 -495 -235 -173 -79 -484 -221 -690
-316 -206 -95 -426 -194 -488 -220 -194 -81 -802 -391 -872 -443 -58 -44 -74
-64 -157 -203 -108 -183 -126 -217 -147 -288 -16 -55 -22 -131 -9 -131 14 0
294 150 408 219 262 158 2165 1091 2347 1151 75 24 134 68 229 167 80 84 115
143 135 230 18 80 -12 165 -59 161 -12 0 -103 -42 -202 -92z"/>
<path d="M24760 13216 c-159 -36 -232 -119 -342 -389 -27 -67 -61 -166 -75
-220 -24 -96 -25 -100 -8 -142 21 -56 90 -133 155 -175 28 -18 100 -50 160
-71 192 -68 206 -79 165 -141 -55 -83 -310 -319 -490 -455 -172 -129 -691
-400 -910 -474 -90 -30 -121 -60 -85 -79 43 -23 246 24 455 105 463 180 903
486 1126 781 38 51 76 95 85 98 46 18 86 -1 242 -113 62 -45 115 -81 117 -81
10 0 126 154 145 191 42 81 15 146 -101 252 -65 60 -90 76 -199 126 -19 9 -51
32 -72 52 -36 34 -38 40 -38 95 0 32 11 124 25 203 30 171 31 213 6 267 -59
130 -215 204 -361 170z m48 -291 c100 -42 144 -149 111 -270 -24 -86 -55 -92
-191 -36 -188 79 -229 158 -130 254 66 64 137 82 210 52z"/>
<path d="M18960 12958 c-78 -174 -132 -384 -145 -568 -8 -112 8 -298 36 -430
49 -233 115 -615 219 -1270 209 -1323 371 -2271 556 -3250 203 -1073 260
-1409 359 -2095 75 -522 96 -737 97 -985 1 -300 -26 -481 -122 -822 -57 -200
-90 -352 -90 -410 0 -32 3 -39 17 -36 66 13 189 304 318 753 182 635 280 1289
246 1645 -49 508 -273 1988 -352 2320 -38 160 -80 401 -324 1835 -171 1003
-185 1097 -192 1273 -6 139 -5 142 15 142 13 0 34 -19 59 -52 21 -29 82 -105
136 -168 133 -156 229 -287 307 -421 36 -62 71 -114 78 -117 22 -7 13 106 -28
359 -92 552 -172 779 -437 1229 -150 256 -229 395 -328 580 -176 329 -328 550
-379 550 -11 0 -27 -21 -46 -62z"/>
<path d="M21112 12793 c-98 -165 -172 -308 -232 -447 -52 -121 -98 -271 -87
-282 3 -3 153 2 334 11 490 26 1073 13 1145 -26 47 -25 16 -57 -258 -260 -104
-77 -322 -229 -484 -338 -358 -241 -395 -272 -337 -286 102 -26 527 185 957
476 423 286 700 573 841 873 84 180 57 241 -129 285 -254 60 -935 111 -1478
111 l-201 0 -71 -117z"/>
<path d="M3935 11819 c-167 -18 -343 -70 -417 -124 -26 -19 -66 -62 -89 -96
-124 -183 -288 -630 -265 -723 9 -35 40 -34 156 4 139 46 211 54 475 54 326 1
599 -29 703 -74 69 -31 56 -53 -65 -114 -39 -19 -109 -58 -155 -84 -46 -27
-171 -98 -278 -157 -231 -127 -373 -218 -441 -282 -55 -51 -59 -65 -27 -87 35
-25 116 -19 303 19 94 20 250 51 348 71 350 69 477 130 680 323 263 251 528
699 576 974 14 79 -1 113 -67 156 -95 61 -386 115 -752 141 -170 12 -570 11
-685 -1z"/>
<path d="M1555 11281 c-102 -46 -175 -198 -220 -455 -8 -49 -26 -197 -40 -330
-30 -293 -42 -366 -61 -366 -16 0 -82 92 -180 250 -193 311 -380 491 -579 557
-68 23 -98 27 -200 27 -132 1 -180 -14 -217 -65 -24 -32 -47 -161 -48 -266 0
-73 3 -85 25 -111 14 -17 32 -45 39 -64 29 -68 96 -106 205 -114 52 -4 92 1
184 24 l118 29 136 -146 c288 -309 370 -439 344 -539 -6 -22 -18 -46 -27 -53
-35 -29 -57 -93 -62 -177 -3 -57 -1 -87 7 -95 8 -8 47 -12 104 -12 88 0 92 -1
95 -23 3 -17 -11 -37 -51 -76 -62 -59 -97 -122 -127 -228 -26 -90 -36 -260
-21 -343 14 -75 69 -191 150 -315 118 -181 144 -259 181 -545 31 -239 62 -342
95 -315 31 26 50 283 35 480 -18 237 -82 456 -186 635 -68 119 -134 256 -134
280 0 60 234 195 435 251 163 45 215 106 223 259 4 76 3 82 -23 113 -32 38
-73 60 -199 109 -120 47 -183 79 -194 100 -6 11 -4 52 4 107 7 48 25 224 39
390 26 306 48 486 66 543 7 23 20 35 50 47 48 20 138 21 182 2 37 -15 101 -82
172 -178 28 -39 56 -68 66 -68 23 0 82 73 111 136 19 41 23 66 22 149 0 158
-42 240 -167 329 -113 81 -261 109 -352 67z"/>
<path d="M11248 11219 c-417 -21 -699 -107 -795 -241 -68 -95 -168 -331 -208
-487 -43 -175 -67 -331 -50 -331 3 0 54 22 113 49 224 102 346 127 708 143
381 17 704 -3 704 -43 0 -28 -537 -384 -1084 -719 -197 -120 -221 -138 -224
-163 -4 -31 21 -67 46 -67 8 0 135 40 281 89 146 49 316 101 376 115 61 14
159 37 218 51 312 72 491 211 720 560 224 341 408 848 342 942 -20 28 -103 47
-330 72 -163 19 -548 42 -635 39 -19 0 -101 -4 -182 -9z"/>
<path d="M18140 11087 c-78 -32 -165 -94 -236 -169 -72 -75 -120 -147 -177
-266 -69 -143 -57 -212 44 -257 21 -10 39 -23 39 -30 0 -6 -16 -27 -36 -46
-57 -54 -92 -116 -110 -196 -21 -94 -15 -101 60 -84 75 17 222 92 471 241 224
135 331 222 374 308 38 76 11 90 -95 50 -51 -19 -79 -22 -209 -22 -253 1 -388
50 -343 124 16 26 118 104 172 132 21 11 66 24 99 28 72 11 108 34 124 83 15
43 1 102 -27 117 -31 16 -91 11 -150 -13z"/>
<path d="M8767 11085 c-31 -31 -71 -185 -117 -452 -51 -303 -66 -597 -36 -727
38 -163 160 -306 261 -306 89 0 253 76 330 153 97 98 212 365 222 517 4 58 2
78 -9 87 -23 20 -49 -6 -133 -132 -111 -166 -191 -225 -306 -225 -79 0 -134
30 -177 98 -84 130 -87 230 -22 637 15 99 31 208 35 242 11 103 -9 148 -48
108z"/>
<path d="M21166 10648 c-7 -24 -26 -213 -26 -251 0 -56 21 -94 111 -199 115
-135 250 -315 297 -394 63 -106 75 -156 70 -276 -7 -145 -37 -234 -216 -623
-293 -639 -253 -1040 103 -1040 88 0 156 23 261 86 128 78 274 243 310 351 34
104 3 222 -91 341 -63 79 -147 143 -268 202 l-102 50 -3 42 c-2 33 8 68 51
165 101 227 149 423 150 603 1 101 -2 119 -36 217 -71 210 -176 377 -337 539
-154 156 -262 229 -274 187z m428 -2124 c202 -52 302 -189 183 -250 -52 -27
-127 -44 -197 -43 -135 1 -175 39 -174 169 0 51 5 85 17 108 16 29 22 32 63
32 26 0 74 -7 108 -16z"/>
<path d="M25282 9875 c-63 -53 -233 -346 -305 -527 -20 -47 -43 -121 -52 -165
-9 -43 -19 -85 -21 -93 -3 -11 25 -34 88 -75 51 -33 238 -153 416 -268 178
-115 343 -215 368 -224 40 -14 47 -13 69 1 36 24 175 215 256 354 152 260 178
406 87 488 -58 54 -842 534 -871 534 -3 0 -19 -11 -35 -25z"/>
<path d="M23559 9723 c-39 -41 -117 -185 -197 -363 -91 -201 -132 -320 -132
-379 0 -77 27 -97 367 -274 120 -63 283 -154 363 -204 156 -97 241 -143 264
-143 47 0 300 411 356 579 35 105 37 151 10 223 -28 74 -66 115 -125 136 -27
10 -81 41 -120 69 -129 93 -655 368 -726 379 -28 5 -38 1 -60 -23z"/>
<path d="M4186 9608 c-49 -111 -131 -411 -163 -593 -14 -82 -17 -162 -18 -440
0 -381 1 -390 79 -528 45 -82 83 -114 142 -123 71 -10 224 1 271 21 98 40 212
212 260 393 23 85 26 118 27 272 1 156 -1 179 -19 214 -40 78 -47 62 -79 -174
-24 -178 -65 -243 -186 -298 -42 -20 -70 -25 -125 -25 -138 0 -194 58 -215
223 -23 189 -8 439 40 655 46 210 62 373 40 429 -14 39 -29 32 -54 -26z"/>
<path d="M5698 9483 c-21 -25 -33 -65 -67 -238 -53 -262 -64 -511 -27 -599 8
-19 66 -88 129 -154 273 -287 516 -694 478 -802 -36 -105 -247 -310 -436 -426
-212 -130 -504 -249 -755 -308 -401 -95 -947 -82 -1320 31 -143 43 -329 132
-437 209 -185 133 -564 503 -581 566 -4 18 -15 33 -22 33 -21 0 -56 -57 -81
-133 -38 -116 -45 -121 -241 -171 -137 -35 -218 -66 -348 -132 -344 -175 -677
-484 -826 -764 -106 -199 -211 -613 -276 -1085 -17 -125 -17 -550 0 -705 63
-569 176 -1085 351 -1590 100 -291 283 -871 341 -1085 73 -269 198 -833 211
-952 15 -135 5 -629 -15 -807 -21 -179 -25 -336 -8 -353 30 -30 75 39 111 173
28 103 94 502 122 739 20 168 23 244 24 545 0 378 -7 475 -55 760 -50 291
-123 585 -240 955 -66 210 -102 339 -143 507 -22 90 -56 190 -92 275 -92 214
-166 458 -244 808 -84 374 -116 607 -109 778 6 133 28 210 86 307 43 71 192
223 312 319 269 214 647 410 870 452 89 17 130 9 148 -29 7 -14 31 -112 53
-217 68 -322 114 -452 215 -608 106 -162 292 -315 504 -416 135 -63 341 -144
387 -152 91 -14 104 39 92 374 -4 114 -8 255 -8 315 l-1 107 88 0 c48 0 150
-7 227 -14 392 -40 604 -26 934 60 497 129 871 376 1105 727 123 184 117 168
216 637 80 377 100 498 106 660 7 156 -9 285 -51 420 -82 259 -327 653 -548
878 -110 112 -151 137 -179 105z"/>
<path d="M16812 6843 c-118 -186 -211 -367 -246 -483 -23 -79 -61 -269 -54
-275 2 -2 95 -49 208 -105 233 -116 407 -216 421 -242 16 -31 64 -22 109 19
76 68 259 364 320 515 65 163 61 237 -16 291 -105 74 -639 357 -675 357 -10 0
-36 -30 -67 -77z"/>
<path d="M14442 6278 c-133 -361 -172 -513 -193 -750 -13 -150 -5 -313 18
-391 19 -67 102 -151 194 -196 80 -39 95 -35 181 46 79 76 152 188 178 271 33
107 52 251 48 367 -3 93 -5 107 -26 127 -23 23 -23 23 -38 4 -19 -26 -71 -162
-85 -223 -19 -81 -35 -109 -72 -126 -87 -42 -183 -7 -232 83 -26 49 -29 64
-28 140 1 96 14 160 72 342 22 69 47 157 56 195 20 83 29 233 18 291 -8 44 -8
43 -91 -180z"/>
<path d="M28372 6123 c-11 -16 -47 -82 -80 -149 -217 -433 -334 -851 -334
-1189 0 -210 39 -354 122 -448 89 -102 267 -74 415 65 77 72 127 145 172 250
89 212 107 429 38 460 -38 17 -60 -10 -85 -105 -12 -45 -26 -96 -31 -113 -40
-128 -199 -234 -309 -204 -46 12 -95 65 -109 117 -31 110 -21 317 25 534 28
133 60 239 137 460 60 168 88 281 80 323 -7 33 -17 33 -41 -1z"/>
<path d="M11802 5997 c-14 -17 -43 -125 -91 -342 -91 -413 -98 -655 -21 -805
70 -136 207 -188 360 -136 143 49 295 306 307 521 4 69 1 85 -17 113 -27 43
-61 41 -70 -3 -16 -75 -106 -183 -191 -230 -126 -68 -278 -15 -319 111 -20 59
-6 173 45 374 39 155 47 202 48 288 2 81 -1 105 -13 112 -20 13 -26 12 -38 -3z"/>
<path d="M7004 5280 c-80 -124 -215 -359 -254 -443 -39 -82 -65 -185 -57 -219
13 -51 75 -94 295 -206 119 -62 273 -148 341 -192 l125 -80 29 27 c32 32 139
187 215 314 98 164 162 322 162 399 -1 71 -59 138 -185 212 -111 66 -473 240
-568 274 l-38 13 -65 -99z"/>
<path d="M5533 5048 c-47 -51 -183 -311 -259 -494 -47 -113 -77 -228 -69 -264
8 -36 74 -95 124 -111 48 -15 332 -154 454 -222 54 -31 123 -74 153 -98 95
-73 135 -56 245 108 209 313 291 603 200 707 -18 20 -606 317 -711 359 -102
40 -113 41 -137 15z"/>
<path d="M2851 4184 c-130 -466 -195 -898 -208 -1364 -12 -432 35 -565 231
-660 153 -74 201 -65 331 63 155 153 207 346 209 772 1 224 -4 275 -28 275
-21 0 -44 -64 -91 -255 -69 -281 -131 -382 -243 -393 -100 -9 -179 43 -228
150 -23 51 -29 80 -32 154 -6 143 36 458 117 874 52 271 63 346 65 460 1 118
-6 150 -37 150 -22 0 -28 -15 -86 -226z"/>
<path d="M26710 4218 c-53 -87 -188 -489 -225 -672 -73 -362 -46 -645 82 -838
46 -69 132 -84 280 -48 164 39 281 109 352 210 120 171 204 471 172 615 -14
62 -59 122 -96 127 -19 3 -20 -4 -27 -102 -14 -225 -43 -302 -142 -377 -142
-106 -287 -147 -386 -107 -49 20 -80 79 -105 199 -36 176 -22 288 79 657 58
212 82 327 73 352 -10 26 -36 18 -57 -16z"/>
<path d="M11618 4161 c-140 -55 -261 -198 -302 -357 -15 -60 -20 -95 -57 -424
-21 -197 -60 -414 -79 -450 -12 -22 -12 -22 -46 11 -19 18 -83 101 -141 183
-293 410 -472 574 -690 630 -62 16 -283 22 -332 9 l-23 -6 5 -226 c7 -283 33
-415 92 -471 30 -28 56 -24 165 25 100 45 139 45 243 -1 125 -54 239 -136 362
-258 115 -115 188 -206 251 -313 44 -76 101 -143 121 -143 26 0 69 53 92 115
59 155 98 375 126 710 18 212 34 304 64 363 64 125 179 174 287 121 77 -37
130 -114 158 -230 32 -127 71 -166 123 -118 111 104 107 350 -10 589 -54 110
-157 218 -231 243 -63 22 -119 21 -178 -2z"/>
<path d="M24873 3740 c-205 -42 -319 -230 -518 -851 -56 -176 -84 -239 -106
-239 -32 0 -93 93 -189 288 -56 114 -122 237 -146 273 -45 69 -157 181 -222
223 -122 80 -463 140 -534 94 -50 -33 -91 -204 -92 -388 -1 -200 23 -228 194
-229 98 -1 189 18 260 54 74 38 93 34 159 -32 70 -71 132 -158 206 -288 31
-55 69 -116 84 -135 15 -19 58 -91 96 -160 88 -162 121 -210 145 -210 27 0 82
60 119 129 47 90 76 171 162 469 43 150 93 306 110 347 80 192 180 285 307
285 47 0 67 -6 103 -28 91 -58 135 -139 177 -327 16 -69 34 -131 40 -137 32
-32 112 33 158 129 41 84 44 171 10 296 -47 178 -127 306 -233 376 -77 51
-205 78 -290 61z"/>
<path d="M17235 3016 c-46 -70 -86 -241 -106 -446 -20 -218 -4 -285 89 -372
56 -52 96 -63 207 -56 51 3 70 9 91 28 32 30 112 189 145 285 45 134 24 304
-38 313 -18 3 -24 -4 -32 -35 -6 -21 -11 -46 -11 -56 0 -55 -108 -197 -150
-197 -31 0 -76 26 -126 72 -39 36 -44 45 -44 85 0 24 11 93 25 151 33 147 41
218 25 237 -19 23 -57 18 -75 -9z"/>
</g>
</svg>
